<?xml version="1.0" encoding="UTF-8"?>
<svg id="Layer_2" data-name="Layer 2" xmlns="http://www.w3.org/2000/svg" viewBox="0 0 641.04 290.31">
  <defs>
    <style>
      .cls-1 {
        fill: #d2d1da;
        stroke-width: 0px;
      }
    </style>
  </defs>
  <g id="_Слой_1" data-name="Слой 1">
    <path class="cls-1" d="M289.52,176.08c.06.22.2.48.41.78.21.3.52.59.94.88.41.29.95.53,1.61.73.65.2,1.47.3,2.46.3.4,0,.87-.02,1.43-.05.55-.03,1.08-.12,1.57-.27.5-.14.93-.36,1.31-.66.38-.29.57-.72.6-1.28.02-.53-.18-.97-.6-1.32-.26-.24-.75-.5-1.47-.77-.71-.26-1.83-.5-3.33-.73-.4-.06-.9-.15-1.52-.25-.62-.1-1.28-.26-1.97-.47-.7-.2-1.39-.49-2.09-.84-.7-.35-1.31-.8-1.86-1.33-.54-.53-.97-1.16-1.28-1.9-.31-.74-.43-1.62-.36-2.64.06-1,.33-1.9.81-2.7.47-.8,1.11-1.49,1.91-2.06.79-.57,1.74-1,2.85-1.3,1.1-.3,2.33-.45,3.68-.45s2.64.17,3.75.52,2.05.82,2.83,1.46c.79.63,1.4,1.39,1.84,2.27.45.88.7,1.86.77,2.95h-4.81c-.06-.57-.25-1.03-.55-1.37-.29-.34-.66-.61-1.09-.8-.43-.19-.9-.32-1.41-.4-.51-.07-1-.11-1.46-.11-.38,0-.8.02-1.28.06-.48.04-.93.14-1.34.28-.42.15-.78.35-1.07.63-.29.28-.45.64-.5,1.08,0,.16.01.36.04.6.02.24.17.49.46.76.29.27.77.52,1.43.77.66.24,1.63.45,2.92.63,3.36.45,5.8,1.26,7.32,2.44,1.53,1.18,2.27,2.85,2.22,4.99-.02.84-.23,1.67-.63,2.49-.4.82-1,1.54-1.79,2.19-.8.64-1.8,1.16-3.02,1.54-1.21.39-2.65.58-4.31.58-1.15,0-2.32-.13-3.53-.38-1.2-.25-2.3-.66-3.31-1.24-1-.57-1.85-1.31-2.53-2.23-.68-.91-1.07-2.04-1.16-3.36h5.11ZM269.9,178.83c4.6,0,6.89-2.43,6.89-7.29s-2.28-7.3-6.83-7.3h-5.17v14.58h5.11ZM260.16,183.14v-23.2h9.78c1.79,0,3.38.27,4.79.8,1.4.53,2.59,1.29,3.56,2.29.98,1,1.72,2.21,2.24,3.64.52,1.44.78,3.06.78,4.88s-.26,3.43-.78,4.87c-.52,1.44-1.26,2.65-2.24,3.64-.97,1-2.16,1.76-3.56,2.29-1.4.53-3,.79-4.79.79h-9.78ZM251.11,183.14l-12.1-14.81v14.81h-4.64v-23.2h3.55l12.13,14.81v-14.81h4.64v23.2h-3.57ZM223.24,159.94h4.64v23.2h-4.64v-23.2ZM212.1,183.14v-12.26l-6.53,12.26h-2.52l-6.53-12.26v12.26h-4.64v-23.2h4.35l8.09,15.81,8.09-15.81h4.34v23.2h-4.64ZM155.78,56.74h36.38l-27.05,46.88c.22-2.54.34-5.12.34-7.72,0-14.26-3.52-27.65-9.68-39.15M138.42,145.92c-2.27,9.73-34.57,63.78-34.57,63.78l-5.74-9.94-.29-.5-1.4-2.44c-8-21.57,11.26-36.25,18.76-58.71,0,0,2.2-6.19,3.07-14.25,1.59-14.81-6.2-20.29-14.88-21.88-7.78-1.42-18.63,0-30.4,4.39-4.95,1.85-10.07,4.21-15.17,7.05-1.1.63-2.2,1.26-3.26,1.91-1.57.94-3.3-.94-2.28-2.46,4.21-6.29,8.76-11.92,13.49-16.73,4-4.05,8.09-7.56,12.25-10.4.06-.04.15-.11.22-.15,1.61-1.11,3.22-2.14,4.86-3.03,1.68,4.53,4.76,8.37,9.36,10.51.6-4.46,2.73-9.73,4.84-12.99.57.26,1.14.5,1.7.72,4.16,1.65,8.67,2.55,13.38,2.55,1.07,0,2.11-.04,3.15-.15,1.77-.13,3.49-.41,5.16-.82,7.37,8.35,13.82,17.74,16.04,25.31,1.93,6.54,3.03,13.46,3.2,20.61v.02c.03.65.03,1.31.03,1.96,0,5.37-.36,10.63-1.53,15.64M40.54,100.03l-14.02-24.29-.4-.66-3.13-5.43-.28-.5-7.17-12.4h40.45c-.02.22-.02.43-.02.66,0,8.11,4.05,15.54,10.82,21.34-.5.24-1,.5-1.5.79-8.67,4.56-17.06,11.55-24.75,20.51M63.94,54.08s0-.06,0-.1c.03-.18.04-.34.06-.5.01-.01.01-.03.01-.04.12-.73.29-1.44.5-2.14.66-2.18,1.81-4.14,3.3-5.69.91-.98,1.96-1.81,3.09-2.44.02.91.04,1.83.11,2.74,0,.09,0,.15.02.24.03.54.07,1.11.11,1.64.04.59.08,1.17.15,1.76.04.59.13,1.16.2,1.74.09.79.19,1.56.31,2.32.01.04.01.1.02.14v.02s.03.08.03.11c0,.11.03.21.05.32,0,.04.01.08.03.13.13.8.27,1.61.43,2.41,0,.03.01.04.01.06t.02.04c.04.35.13.68.2,1,.15.74.33,1.48.52,2.22.02.11.06.24.08.35.04.19.11.41.15.61.02.07.04.13.06.2.03.13.07.24.09.37.15.64.33,1.28.52,1.88.17.59.37,1.2.57,1.79,0,.02.02.04.02.06,0,.03.02.04.02.06.26.83.52,1.61.83,2.4.31.82.61,1.63.94,2.41-1.2-.04-2.37-.26-3.47-.63-5.04-1.7-8.78-6.76-9.09-12.84-.01-.27-.03-.54-.03-.82,0-.63.04-1.23.11-1.83M105.7,67.09c.12-.14.24-.27.37-.4.1-.11.2-.22.31-.34.13-.15.26-.29.39-.43,2.87-3.19,5.75-6.25,8.65-9.18,1.84-1.88,3.71-3.7,5.57-5.44,3.35-3.17,6.71-6.11,10.05-8.81,1.11,2.28,1.79,5.81,1.97,8.81.03.59.06,1.14.06,1.68,0,1.28-.12,2.55-.34,3.77-1.57,8.62-8.42,15.32-16.98,16.46-.25.03-.5.06-.74.08-.33.03-.64.06-.96.07-.26,0-.5.02-.77.02h-.11c-3.8,0-7.35-1.09-10.35-2.98.96-1.11,1.91-2.2,2.89-3.29M152.59,51.29c-1.54-2.39-3.19-4.68-4.95-6.87-.01-.01-.03-.03-.03-.04-.85-1.34-1.79-2.62-2.8-3.84-.67-.82-1.38-1.59-2.12-2.34-1.14-1.16-2.37-2.24-3.7-3.29.08-.11.19-.22.27-.34.56-.67,1.07-1.37,1.56-2.09,2.36-3.36,4.16-7.12,5.34-11.13,1-3.43,1.54-7.04,1.54-10.79,0-3.05-.36-6.02-1.03-8.87-.48-1.99-3.22-2.31-4.16-.49-1.56,3.02-3.4,5.88-5.49,8.53-1.9,2.44-3.96,4.69-6.27,6.73-.26.24-.52.48-.8.71-1.87,1.69-3.86,3.19-5.97,4.58-.92.61-1.84,1.19-2.8,1.74-.11.06-.22.13-.33.19-.09.06-.18.1-.26.14-.12.07-.24.15-.37.21-.79.43-1.58.85-2.4,1.23-2.98-.68-6.1-1.11-9.33-1.33-1.61-.13-3.25-.19-4.9-.19-9.33,0-18.02,1.9-25.37,5.18-.82-.22-1.65-.46-2.48-.74-1.48-.46-2.92-1-4.33-1.61-1.37-.56-2.71-1.19-4.03-1.87-.15-.08-.27-.14-.41-.22-.08-.04-.15-.09-.23-.12-.13-.08-.25-.14-.38-.2-3.92-2.14-7.56-4.73-10.81-7.7-1.42-1.31-3.68-.27-3.59,1.65.17,3.31.98,7.81,3.66,12.04.1.15.19.31.29.46,0,.03.03.04.04.06.11.15.21.31.33.46,1.89,2.68,4.58,5.2,8.39,7.21-1.33,1.2-2.55,2.53-3.59,3.94-.31.41-.61.8-.85,1.24-1.57,2.45-2.74,5.06-3.44,7.76H6.11l12.4,21.47.28.5,5.7,9.86.44.76,11.92,20.64c-2.91,3.73-5.71,7.76-8.36,12.05-.12.2-.26.4-.36.59-.31.5-.62,1.01-.91,1.53-.14.22-.27.43-.38.64-7.89,13.29-14.5,28.91-19.19,46.14-.06.22-.12.43-.17.66-.5,1.84-.97,3.69-1.42,5.57-.08.25-.13.5-.19.76-.88,3.68-1.68,7.44-2.37,11.26-7.54,41.36-2.46,80.09,11.49,105.53,1.07,1.93,4.01.99,3.7-1.2-.91-6.28-1.49-13.73-1.7-22-.44-15.5.45-33.92,3-53.16.91-6.91,2.02-13.93,3.37-20.95.03-.21.07-.43.11-.63.51-2.71,1.08-5.41,1.67-8.11.04-.2.08-.38.12-.58,1.4-6.36,3.01-12.68,4.8-18.92.85-2.95,1.74-5.87,2.7-8.76v-.04c1.09-3.34,2.73-8.59,5.27-12,.11-.15.23-.31.34-.45.21-.26.43-.51.64-.74,1.54-1.59,4.44-1.39,4.42,1.63-.01.97-.29,2.83-.66,4.86-.04.23-.08.47-.13.71-.6,3.2-1.35,6.63-1.57,7.61-.68,2.92-1.28,5.96-1.83,9.11-.8,4.38-1.43,8.97-1.95,13.76-.34,3.08-.62,6.24-.85,9.46-.02.19-.03.37-.04.57-.22,3.21-.39,6.49-.49,9.82-.01.21-.03.41-.03.63-.16,5.48-.17,11.11,0,16.85.33,11.49,1.31,22.49,2.83,32.71.38,2.53,3.41,3.59,5.29,1.86,1.35-1.23,2.71-2.53,4.1-3.9,8.07-7.88,16.69-17.99,25.26-29.71.89-1.22.77-2.89-.26-4-.75-.83-1.49-1.76-2.2-2.74-.37-.44-.72-1-1.09-1.55-.45-.7-.91-1.47-1.36-2.26-.11-.19-.22-.38-.31-.58-.64-1.19-1.26-2.44-1.84-3.77-1.01-2.29-1.93-4.77-2.75-7.42-.06-.19-.12-.37-.17-.56-2.29-7.54-3.71-16.38-3.98-25.86-.06-1.86-.06-3.7-.02-5.5,0-.23,0-.45.02-.66v-.13c.08-2.55.2-5.09.4-7.57.03-.2.03-.4.06-.6.24-2.9.56-5.74.97-8.39.11-.8.25-1.59.38-2.36.45-2.57.8-4.43,1.14-5.9.5-2.23.93-3.55,1.5-5.08.89-2.36,3.24-2.39,4.19-1.59,1.37,1.17.97,6.7,1.19,9.94.27,4.04.47,7.54,1.06,10.5,2.44,12.22,4.26,16.84,7.83,24.44,2.5,5.3,11.72,20.3,11.72,20.3l2.97,5.14.03.04.29.51,10.72,18.57,39.43-68.28,1.27-2.21,16.18-28.01,1.28-2.22,39.58-68.56h-49.01ZM619.59,137.05c8.64,0,12.97-4.57,12.97-13.72s-4.28-13.72-12.85-13.72h-9.73v27.44h9.61ZM601.25,145.15v-43.65h18.4c3.37,0,6.38.5,9.01,1.5,2.64,1,4.88,2.43,6.7,4.3,1.83,1.87,3.24,4.16,4.21,6.86.98,2.7,1.46,5.76,1.46,9.17s-.49,6.47-1.46,9.17c-.98,2.7-2.38,4.99-4.21,6.86-1.83,1.87-4.06,3.3-6.7,4.3-2.64,1-5.64,1.49-9.01,1.49h-18.4ZM593.64,101.5v8.11h-23.2v9.67h22.33v8.11h-22.33v9.66h24.01v8.11h-32.73v-43.65h31.92ZM544.69,145.15l-22.76-27.87v27.87h-8.73v-43.65h6.67l22.83,27.87v-27.87h8.73v43.65h-6.74ZM505.04,101.5v8.11h-23.2v9.67h22.32v8.11h-22.32v9.66h24.01v8.11h-32.74v-43.65h31.93ZM430.64,101.5h37.29v8.11h-14.28v35.55h-8.73v-35.55h-14.28v-8.11ZM396.1,101.5v17.78h20.64v-17.78h8.73v43.65h-8.73v-17.77h-20.64v17.77h-8.73v-43.65h8.73ZM335.42,123.33c0-3.45.52-6.55,1.56-9.29,1.04-2.74,2.51-5.08,4.43-7.01,1.91-1.93,4.24-3.41,6.98-4.43,2.74-1.01,5.82-1.51,9.23-1.46,2.25,0,4.46.27,6.64.81,2.18.54,4.19,1.37,6.02,2.5,1.83,1.12,3.42,2.53,4.77,4.24,1.35,1.7,2.34,3.72,2.96,6.04h-9.23c-.71-1.28-1.58-2.29-2.62-3.02-1.03-.73-2.09-1.28-3.18-1.65-1.08-.38-2.08-.61-2.99-.69-.91-.08-1.6-.12-2.06-.12-4.45,0-7.85,1.17-10.19,3.52-2.36,2.35-3.53,5.87-3.53,10.57,0,9.31,4.47,14.01,13.41,14.09,3.45,0,6.27-.75,8.48-2.25,2.2-1.49,3.66-3.62,4.37-6.36l.06-.24h-15.22v-8.11h23.95c.41,2.5.49,4.98.22,7.46-.27,2.48-1.09,4.95-2.46,7.45-1.83,3.29-4.39,5.8-7.7,7.54-3.31,1.75-7.21,2.62-11.69,2.62-3.41,0-6.48-.51-9.23-1.53-2.74-1.01-5.08-2.49-7.01-4.42-1.93-1.93-3.41-4.28-4.43-7.01-1.01-2.74-1.53-5.82-1.53-9.23M316.96,101.5h8.73v43.65h-8.73v-43.65ZM278.68,145.15v-43.65h8.73v35.55h22.83v8.11h-31.55ZM261.66,145.15l-22.76-27.87v27.87h-8.73v-43.65h6.67l22.83,27.87v-27.87h8.73v43.65h-6.73ZM222.62,137.61v7.54h-30.74v-44.28h30.18v7.55h-21.57v10.66h18.58v6.99h-18.58v11.53h22.14Z"/>
  </g>
</svg>