<?xml version="1.0" encoding="UTF-8"?>
<svg id="Layer_2" data-name="Layer 2" xmlns="http://www.w3.org/2000/svg" viewBox="0 0 624.73 204.95">
  <defs>
    <style>
      .cls-1 {
        fill: #d2d1da;
        stroke-width: 0px;
      }
    </style>
  </defs>
  <g id="_Слой_1" data-name="Слой 1">
    <path class="cls-1" d="M619.76,143.68l-5.61,9.2-5.59-9.2h-2.67l6.93,11.37v6.09h2.47v-6.04l6.93-11.42h-2.47ZM591.32,159.12c-1.3,0-2.47-.29-3.52-.87-1.05-.58-1.87-1.38-2.46-2.41-.59-1.02-.88-2.17-.88-3.43s.29-2.41.88-3.43c.59-1.02,1.41-1.83,2.46-2.41,1.04-.58,2.22-.87,3.52-.87,1.96,0,3.6.69,4.91,2.07l1.62-1.57c-.8-.9-1.76-1.58-2.9-2.04-1.13-.45-2.37-.68-3.74-.68-1.75,0-3.33.38-4.74,1.16-1.41.77-2.52,1.84-3.32,3.19-.8,1.36-1.2,2.88-1.2,4.58s.4,3.23,1.2,4.58c.8,1.35,1.9,2.42,3.3,3.19,1.4.78,2.98,1.16,4.73,1.16,1.36,0,2.61-.23,3.75-.7,1.14-.46,2.11-1.15,2.91-2.04l-1.62-1.57c-1.33,1.4-2.97,2.1-4.91,2.1M568.17,143.68v13.02l-10.48-13.02h-2.05v17.46h2.49v-13.02l10.48,13.02h2.04v-17.46h-2.49ZM533.94,158.97v-5.63h8.76v-2.13h-8.76v-5.36h9.83v-2.17h-12.32v17.46h12.67v-2.17h-10.18ZM516.81,158c-1.16.75-2.53,1.12-4.09,1.12-1.31,0-2.5-.29-3.56-.87-1.05-.58-1.88-1.38-2.48-2.41-.6-1.02-.9-2.17-.9-3.43s.3-2.43.9-3.45c.6-1.02,1.42-1.82,2.48-2.39,1.06-.58,2.25-.86,3.58-.86,1.97,0,3.66.67,5.06,2.02l1.55-1.55c-.8-.88-1.77-1.55-2.91-2.01-1.14-.45-2.41-.68-3.8-.68-1.78,0-3.39.38-4.8,1.14-1.42.77-2.54,1.83-3.35,3.2-.81,1.36-1.21,2.89-1.21,4.59s.4,3.23,1.21,4.58c.81,1.35,1.92,2.42,3.33,3.19,1.41.78,3,1.16,4.77,1.16,1.24,0,2.44-.19,3.59-.57,1.15-.38,2.16-.93,3.02-1.65v-6.81h-2.4v5.69ZM481.93,154.78l3.77-8.56,3.77,8.56h-7.53ZM486.95,143.68h-2.47l-7.91,17.46h2.57l1.92-4.37h9.28l1.92,4.37h2.62l-7.93-17.46ZM450.38,158c-1.16.75-2.53,1.12-4.09,1.12-1.31,0-2.5-.29-3.56-.87-1.05-.58-1.88-1.38-2.48-2.41-.6-1.02-.9-2.17-.9-3.43s.3-2.43.9-3.45c.6-1.02,1.42-1.82,2.48-2.39,1.06-.58,2.25-.86,3.58-.86,1.97,0,3.66.67,5.06,2.02l1.55-1.55c-.8-.88-1.77-1.55-2.91-2.01-1.14-.45-2.41-.68-3.8-.68-1.78,0-3.38.38-4.8,1.14-1.42.77-2.54,1.83-3.34,3.2-.81,1.36-1.21,2.89-1.21,4.59s.4,3.23,1.21,4.58c.81,1.35,1.92,2.42,3.33,3.19,1.41.78,3,1.16,4.77,1.16,1.25,0,2.44-.19,3.59-.57,1.15-.38,2.16-.93,3.02-1.65v-6.81h-2.4v5.69ZM423.06,143.68v13.02l-10.48-13.02h-2.04v17.46h2.49v-13.02l10.48,13.02h2.05v-17.46h-2.49ZM395.32,161.14h2.5v-17.46h-2.5v17.46ZM370.68,143.68v2.17h5.99v15.29h2.47v-15.29h5.99v-2.17h-14.44ZM351.5,158.97v-5.63h8.76v-2.13h-8.76v-5.36h9.82v-2.17h-12.32v17.46h12.67v-2.17h-10.18ZM330.94,151.54l7.46-7.86h-2.84l-9.48,9.75v-9.75h-2.49v17.46h2.49v-4.51l3.19-3.24,6.68,7.76h2.92l-7.93-9.6ZM304.7,153.71h-4.24v-7.86h4.24c1.58,0,2.79.33,3.62,1.01.83.67,1.25,1.64,1.25,2.91s-.42,2.23-1.25,2.92c-.83.68-2.04,1.02-3.62,1.02M308.21,155.28c1.23-.43,2.18-1.12,2.85-2.07.66-.95,1-2.1,1-3.44,0-1.9-.65-3.38-1.95-4.47-1.3-1.08-3.08-1.62-5.34-1.62h-6.81v17.46h2.49v-5.31h4.32c.27,0,.63-.02,1.1-.05l3.77,5.36h2.72l-4.14-5.86ZM274.94,154.78l3.76-8.56,3.77,8.56h-7.53ZM279.95,143.68h-2.47l-7.91,17.46h2.57l1.92-4.37h9.28l1.92,4.37h2.62l-7.93-17.46ZM259.47,143.68h-2.05l-7.19,12.27-7.28-12.27h-2.05v17.46h2.4v-12.65l6.31,10.53h1.15l6.31-10.6.02,12.72h2.4l-.02-17.46ZM578.03,120.59h13.08v-46.7h-13.08v46.7ZM604.65,94.57l19.08-20.68h-14.54l-14.29,15.34,4.67,18.9,9.82,12.46h15.34l-20.08-26.01ZM551.09,110.58c-2.53,0-4.79-.56-6.77-1.67-1.98-1.12-3.51-2.68-4.6-4.7-1.09-2.03-1.64-4.35-1.64-6.97s.54-4.95,1.64-6.97c1.08-2.03,2.62-3.59,4.6-4.7,1.98-1.11,4.24-1.67,6.77-1.67,4.31,0,7.98,1.82,11.01,5.47l8.4-7.61c-2.27-2.85-5.12-5.03-8.54-6.54-3.42-1.51-7.27-2.27-11.54-2.27-4.89,0-9.29,1.03-13.17,3.11-3.9,2.06-6.95,4.95-9.18,8.64-2.23,3.69-3.34,7.87-3.34,12.54s1.11,8.85,3.34,12.54c2.22,3.69,5.28,6.57,9.18,8.64,3.89,2.06,8.28,3.1,13.17,3.1,4.27,0,8.12-.76,11.54-2.27,3.42-1.51,6.27-3.69,8.54-6.53l-8.4-7.61c-3.03,3.65-6.69,5.47-11.01,5.47M503.52,104.21c-1.11,2.02-2.62,3.59-4.53,4.7-1.91,1.11-4.04,1.67-6.4,1.67s-4.49-.56-6.41-1.67c-1.91-1.12-3.42-2.68-4.53-4.7-1.12-2.03-1.67-4.35-1.67-6.97s.55-4.95,1.67-6.97c1.11-2.03,2.62-3.59,4.53-4.7,1.91-1.11,4.04-1.67,6.41-1.67s4.49.56,6.4,1.67c1.91,1.11,3.42,2.68,4.53,4.7,1.12,2.03,1.67,4.35,1.67,6.97s-.56,4.95-1.67,6.97M515.16,84.76c-2.25-3.69-5.34-6.58-9.28-8.67-3.94-2.09-8.37-3.13-13.31-3.13s-9.37,1.04-13.31,3.13c-3.94,2.09-7.03,4.98-9.27,8.67-2.25,3.69-3.37,7.85-3.37,12.48s1.12,8.78,3.37,12.47c2.25,3.69,5.34,6.58,9.27,8.67,3.94,2.09,8.37,3.14,13.31,3.14s9.37-1.04,13.31-3.14c3.94-2.09,7.03-4.98,9.28-8.67,2.24-3.69,3.37-7.85,3.37-12.47s-1.13-8.78-3.37-12.48M444.68,96.21c-1.38,1.18-3.43,1.77-6.14,1.77h-7.33v-7.89l-5.77-5.78h5.77s7.33,0,7.33,0c2.71,0,4.76.6,6.14,1.8,1.37,1.2,2.06,2.89,2.06,5.07s-.69,3.86-2.06,5.04M450.95,105.91c2.93-1.42,5.19-3.39,6.77-5.9,1.58-2.51,2.37-5.46,2.37-8.84s-.85-6.57-2.53-9.17c-1.69-2.6-4.1-4.6-7.21-6.01-3.11-1.4-6.78-2.1-11.01-2.1h-21.35v46.7h13.21v-12.41h7.2l8.47,12.41h14.14l-10.07-14.68ZM407.69,98.74c-1.71-1.89-3.74-3.27-6.07-4.13-2.33-.87-5.28-1.68-8.84-2.43-3.16-.67-5.45-1.31-6.87-1.94-1.42-.62-2.14-1.55-2.14-2.8s.6-2.25,1.8-3.04c1.2-.78,3.11-1.16,5.74-1.16,4.18,0,8.5,1.2,12.94,3.6l4.07-9.81c-2.27-1.33-4.89-2.35-7.87-3.04-2.98-.69-6-1.03-9.07-1.03-4.49,0-8.28.67-11.37,2-3.09,1.34-5.41,3.15-6.97,5.44-1.56,2.29-2.33,4.86-2.33,7.71,0,3.25.84,5.83,2.53,7.74,1.69,1.92,3.71,3.3,6.07,4.17s5.29,1.68,8.8,2.43c3.2.71,5.53,1.39,6.97,2.04,1.44.65,2.17,1.64,2.17,2.97,0,2.53-2.54,3.8-7.61,3.8-2.67,0-5.38-.42-8.14-1.27-2.76-.85-5.18-1.96-7.27-3.34l-4.34,9.74c2.23,1.56,5.11,2.8,8.67,3.74,3.56.93,7.23,1.4,11.01,1.4,4.45,0,8.23-.68,11.34-2.04,3.12-1.35,5.45-3.17,7.01-5.43,1.55-2.27,2.33-4.8,2.33-7.6,0-3.25-.86-5.82-2.57-7.71M324.87,73.89v10.48h20.22l-5.87,5.87v30.35h13.21v-36.22h14.27v-10.48h-41.82ZM298.66,91.97l3.52,9.87h14.41v-9.87h-17.93ZM295.85,110.38v-26.28h23.54v-10.21h-36.62v46.7h37.5v-10.21h-24.42ZM253.62,110.11v-36.23h-13.21v46.7h35.49v-10.47h-22.28ZM46.87,115.65l55.48,31.92,34.39-45.1-34.27-28.82-15.7,19.32,15.7,9.5-10.38,15.08-49.62-15.08L108.05,31.54l-2.28,18.49,58.2,52.44-61.5,65.26-55.6-52.09ZM102.47,0L0,102.47l102.47,102.48,102.48-102.48L102.47,0Z"/>
  </g>
</svg>