<?xml version="1.0" encoding="UTF-8"?>
<svg id="Layer_2" data-name="Layer 2" xmlns="http://www.w3.org/2000/svg" viewBox="0 0 684.67 209.79">
  <defs>
    <style>
      .cls-1 {
        fill: #d2d1da;
        stroke-width: 0px;
      }
    </style>
  </defs>
  <g id="_Слой_1" data-name="Слой 1">
    <g>
      <path class="cls-1" d="M267.07,114.8l7.09-.7c.43,2.37,1.29,4.11,2.58,5.22,1.3,1.11,3.05,1.66,5.25,1.66,2.34,0,4.09-.49,5.27-1.47,1.18-1,1.77-2.15,1.77-3.47,0-.85-.25-1.57-.74-2.18-.5-.59-1.38-1.11-2.62-1.55-.84-.31-2.77-.82-5.79-1.57-3.87-.97-6.59-2.16-8.16-3.58-2.2-1.99-3.31-4.41-3.31-7.27,0-1.84.52-3.55,1.56-5.16,1.03-1.6,2.53-2.81,4.48-3.65,1.94-.83,4.29-1.25,7.05-1.25,4.51,0,7.89,1,10.17,3,2.27,2.01,3.46,4.66,3.59,8l-7.29.25c-.31-1.85-.97-3.18-1.98-4-1.02-.82-2.54-1.22-4.57-1.22s-3.73.43-4.92,1.31c-.75.55-1.14,1.3-1.14,2.24,0,.85.36,1.58,1.07,2.2.92.76,3.14,1.57,6.65,2.41,3.54.83,6.15,1.7,7.82,2.59,1.7.89,3.01,2.11,3.97,3.65.96,1.56,1.43,3.46,1.43,5.72,0,2.07-.56,4.01-1.71,5.8-1.15,1.8-2.77,3.15-4.87,4.01-2.08.88-4.7,1.33-7.83,1.33-4.55,0-8.03-1.06-10.47-3.16s-3.88-5.16-4.37-9.17M302.26,90.48h7.28v35.98h-7.28v-35.98ZM316.66,126.46v-35.67h7.29v29.61h18.03v6.07h-25.33ZM347.27,126.46v-35.98h7.28v15.94l14.69-15.94h9.76l-13.58,14.01,14.29,21.97h-9.4l-9.9-16.89-5.86,6.02v10.87h-7.28ZM388.39,126.46l-8.45-35.98h7.49l5.35,24.71,6.57-24.71h8.66l6.29,25.14,5.48-25.14h7.31l-8.66,35.98h-7.78l-7.1-26.9-7.14,26.9h-8ZM460.53,126.46h-7.85l-3.1-8.19h-14.43l-2.99,8.19h-7.71l13.97-35.98h7.7l14.42,35.98ZM447.21,112.2l-5.01-13.32-4.85,13.32h9.86ZM469.24,126.46v-15.14l-13.19-20.84h8.52l8.5,14.25,8.29-14.25h8.35l-13.19,20.88v15.1h-7.28ZM523.1,113.26v-6.09h15.62v14.37c-1.51,1.48-3.72,2.77-6.6,3.91-2.89,1.12-5.8,1.69-8.77,1.69-3.76,0-7.03-.79-9.82-2.38-2.8-1.58-4.89-3.86-6.31-6.8-1.41-2.94-2.11-6.14-2.11-9.6,0-3.75.79-7.09,2.35-10.01,1.58-2.91,3.87-5.16,6.9-6.72,2.31-1.19,5.17-1.79,8.61-1.79,4.47,0,7.96.93,10.47,2.82,2.5,1.88,4.11,4.46,4.84,7.78l-7.23,1.37c-.51-1.77-1.47-3.17-2.86-4.2-1.39-1.02-3.14-1.53-5.22-1.53-3.17,0-5.7,1.01-7.56,3.03-1.87,2-2.81,5.01-2.81,8.96,0,4.28.96,7.49,2.85,9.62,1.9,2.14,4.38,3.22,7.46,3.22,1.51,0,3.03-.31,4.56-.89,1.53-.6,2.83-1.33,3.93-2.18v-4.56h-8.29ZM545.45,126.46v-35.98h15.3c3.85,0,6.64.33,8.38.97,1.76.65,3.14,1.79,4.19,3.45,1.05,1.66,1.59,3.54,1.59,5.67,0,2.69-.79,4.93-2.38,6.68-1.58,1.76-3.95,2.87-7.09,3.33,1.56.92,2.85,1.92,3.87,3.01,1.02,1.1,2.39,3.05,4.11,5.85l4.39,7.01h-8.68l-5.21-7.85c-1.87-2.78-3.16-4.55-3.85-5.28-.69-.72-1.42-1.23-2.18-1.48-.78-.28-2.01-.41-3.68-.41h-1.47v15.02h-7.29ZM552.75,105.72h5.38c3.47,0,5.65-.16,6.51-.45.87-.29,1.56-.81,2.04-1.53.5-.71.74-1.62.74-2.71,0-1.21-.33-2.19-.98-2.94-.64-.74-1.56-1.21-2.72-1.41-.6-.08-2.36-.13-5.3-.13h-5.67v9.16ZM580.23,108.7c0-3.66.56-6.75,1.66-9.25.81-1.84,1.93-3.49,3.35-4.94,1.42-1.46,2.96-2.54,4.65-3.24,2.25-.96,4.83-1.43,7.77-1.43,5.31,0,9.54,1.65,12.73,4.94,3.18,3.31,4.78,7.88,4.78,13.76s-1.58,10.37-4.74,13.65c-3.16,3.29-7.4,4.94-12.67,4.94s-9.62-1.64-12.77-4.92c-3.17-3.27-4.75-7.78-4.75-13.51M587.73,108.45c0,4.08.95,7.17,2.82,9.27,1.89,2.11,4.28,3.17,7.18,3.17s5.29-1.05,7.15-3.14c1.86-2.1,2.8-5.22,2.8-9.4s-.91-7.22-2.72-9.23c-1.81-2.04-4.21-3.05-7.23-3.05s-5.41,1.02-7.25,3.08c-1.83,2.07-2.75,5.16-2.75,9.31M620.84,90.48h7.28v19.5c0,3.09.1,5.1.27,6,.32,1.48,1.05,2.67,2.19,3.56,1.16.89,2.75,1.34,4.77,1.34s3.58-.42,4.61-1.28c1.03-.84,1.66-1.86,1.86-3.1.22-1.23.32-3.26.32-6.11v-19.92h7.29v18.92c0,4.33-.19,7.38-.59,9.17-.4,1.77-1.11,3.29-2.17,4.52-1.05,1.24-2.45,2.21-4.21,2.94-1.76.73-4.06,1.1-6.9,1.1-3.44,0-6.03-.4-7.79-1.2-1.76-.79-3.17-1.81-4.2-3.09-1.02-1.28-1.7-2.59-2.02-4-.49-2.06-.71-5.11-.71-9.13v-19.22ZM657.12,126.46v-35.98h11.65c4.42,0,7.29.18,8.63.54,2.06.55,3.78,1.71,5.17,3.53,1.39,1.81,2.1,4.15,2.1,7.01,0,2.21-.41,4.06-1.2,5.57-.81,1.51-1.83,2.69-3.05,3.55-1.23.85-2.49,1.43-3.75,1.7-1.74.34-4.24.52-7.52.52h-4.72v13.56h-7.29ZM664.41,96.56v10.26h3.96c2.86,0,4.75-.19,5.72-.57.96-.37,1.71-.96,2.26-1.78.53-.8.82-1.72.82-2.8,0-1.32-.38-2.4-1.14-3.26-.78-.84-1.74-1.39-2.93-1.61-.85-.15-2.59-.24-5.21-.24h-3.49Z"/>
      <path class="cls-1" d="M165.24,0l30.54,13.28c-32.83,14.27-65.6,29.58-98.25,47.79-9.97,5.56-42.51,23.56-38.66,35.64,1.87,5.88,13.2,8.52,32.56,8.42-54.01,6.49-68.15-4.19-39.83-33.12C86.75,41.5,125.5,19.58,165.24,0"/>
      <path class="cls-1" d="M222.9,26.64l30.92,17.77c-33.47,9.25-147.49,29.82-155.83,47.63-1.36,2.91-.84,6.55,16.99,6.46-20.11,2.41-28.09-2.69-29.5-6.98-4.27-12.89,39.33-31.21,47.31-34.4,33.01-13.2,75.12-25.43,90.11-30.49"/>
      <path class="cls-1" d="M76.24,209.79l-26.89-18.26c21.92-7.39,43.28-15.75,64.25-24.7,18.12-7.73,39.2-16.02,55.53-27.04,12.38-8.36,24.97-19.56,24.32-27.98-.99-12.68-15.2-19.14-34.77-22.58,49.16,3.7,67.71,24.99,39.4,53.93-35.16,30.5-81.55,49.05-121.84,66.64"/>
      <path class="cls-1" d="M25.49,175.65L0,155.65c18.63-2.8,36.62-7.59,54.69-11.78,14.53-3.37,94-24.27,95.24-36.9,1.01-10.3-14.21-15.41-28.85-17.74,52.19,1.76,63.75,17.74,33.52,38.63-32.51,19.44-94.34,39.44-129.12,47.8"/>
    </g>
  </g>
</svg>