<?xml version="1.0" encoding="UTF-8"?>
<svg id="Layer_2" data-name="Layer 2" xmlns="http://www.w3.org/2000/svg" viewBox="0 0 746.47 127.4">
  <defs>
    <style>
      .cls-1 {
        fill: #d2d1da;
        stroke-width: 0px;
      }
    </style>
  </defs>
  <g id="_Слой_1" data-name="Слой 1">
    <path class="cls-1" d="M198.53,12.19c.65-1.97,2-3.34,4.03-4.13,2.03-.79,5.01-1.18,8.94-1.18.39,0,.59-.39.59-1.18,0-.35-.04-.6-.12-.8h-51.11c-.05.19-.08.45-.08.8,0,.79.13,1.18.39,1.18,4.06,0,7.11.36,9.14,1.08,2.03.72,3.41,2.03,4.13,3.93.72,1.9,1.08,4.75,1.08,8.55v55.96L139.19,4.91h-4.67l-17.16,37.73L46.28,113.94c-3.23-2.76-6.14-6.04-8.73-9.84-2.5-3.66-4.65-7.69-6.44-12.1L100.45,22.26l7.84-7.88v-7.63c-.4-.57-1.17-1.05-2.32-1.44-3.67-1.7-8.69-3.01-15.04-3.93-6.36-.92-12.29-1.38-17.8-1.38-9.57,0-18.71,1.48-27.42,4.42-8.72,2.95-16.52,7.18-23.4,12.68-6.88,5.51-12.32,12.13-16.32,19.86C2,44.7,0,53.41,0,63.1c0,7.34,1.34,14.78,4.03,22.32,2.68,7.53,6.88,14.48,12.58,20.84,5.7,6.36,13.07,11.46,22.12,15.33,7.86,3.36,17.11,5.26,27.74,5.7.1.06.23.1.37.1.83,0,1.64,0,2.42-.02l-.05.02h1.74c.14,0,.27,0,.41,0,.09,0,.17,0,.26,0h42.01c.65,0,.98-.39.98-1.18s-.33-1.18-.98-1.18c-3.23,0-6.08-.45-8.55-1.33l46.17-46.11,15.86,31.33c3.27,6.42,4.49,10.71,3.64,12.88-.8,2.03-3.6,3.11-8.4,3.23-.38,0-.77.01-1.17.01-.1,0-.17.07-.23.18-.21.18-.33.5-.33,1s.12.82.33,1c.06.11.13.18.23.18.07,0,.15,0,.23,0,0,0,0,0,0,0h46.03c.38,0,.77,0,1.16,0,.03,0,.06-.01.09-.01.97,0,1.92.01,2.83.01.39,0,.59-.39.59-1.18s-.2-1.18-.59-1.18c-1.77,0-3.32-.07-4.69-.19-1.49-.31-2.96-.99-4.41-2.07-1.39-1.03-2.84-2.56-4.34-4.56-.34-1.78-.51-4.02-.51-6.74V20.84c0-3.8.33-6.68.98-8.65ZM46.11,9.68c3.35-1.94,7.06-3.29,11.13-4.04l28.24,28.36-8.76,8.76-31.93-31.76-.31-.31c.53-.36,1.08-.7,1.63-1.01ZM42.56,12.05l.21.21,32.36,32.1-8.04,8.05-32.57-31.96c2.28-3.26,4.96-6.05,8.04-8.39ZM28.11,83.26c-2.23-7.93-3.34-16.42-3.34-25.46,0-10.48,1.54-19.68,4.62-27.62,1.06-2.75,2.31-5.29,3.74-7.62l32.2,31.6-35.23,35.25c-.73-1.97-1.39-4.03-1.99-6.15ZM128.24,32.13l8.3,16.4-28.85,28.94,20.55-45.34ZM83.65,114.52c-2.56,4-5.11,6.75-7.67,8.26-.09.05-.18.1-.27.15-1.61.22-3.26.35-4.94.35-6.82,0-13.04-1.7-18.68-5.12-1.38-.84-2.72-1.75-4.01-2.74L114.38,49.19l-21.98,48.32c-3.28,7.34-6.19,13.01-8.75,17.01ZM102.81,122.69c-2.11-1.12-3.88-2.63-5.3-4.54-3.41-4.59-3.34-10.81.2-18.68l7.19-15.87,32.81-32.77,12.37,24.44-47.27,47.41ZM267.69,31.87c-1.52,2.71-2.27,5.8-2.27,9.25s.76,6.54,2.27,9.25c1.52,2.71,3.63,4.83,6.34,6.34,2.71,1.52,5.8,2.27,9.25,2.27,5.58,0,10.26-2.21,14.04-6.62l8.3,7.66c-2.66,3.24-5.96,5.72-9.89,7.42-3.94,1.7-8.32,2.55-13.16,2.55-5.69,0-10.84-1.24-15.44-3.71-4.6-2.47-8.22-5.9-10.85-10.29-2.63-4.39-3.95-9.35-3.95-14.88s1.32-10.49,3.95-14.88c2.63-4.39,6.25-7.82,10.85-10.29,4.6-2.47,9.77-3.71,15.52-3.71,4.84,0,9.21.85,13.12,2.55,3.91,1.7,7.19,4.15,9.85,7.34l-8.3,7.66c-3.78-4.36-8.46-6.54-14.04-6.54-3.46,0-6.54.76-9.25,2.27-2.71,1.52-4.83,3.63-6.34,6.34ZM355.81,15.99c-4.63-2.5-9.84-3.75-15.64-3.75s-11.02,1.25-15.68,3.75c-4.66,2.5-8.3,5.94-10.93,10.33-2.63,4.39-3.95,9.32-3.95,14.8s1.32,10.41,3.95,14.8c2.63,4.39,6.27,7.83,10.93,10.33,4.65,2.5,9.88,3.75,15.68,3.75s11.01-1.25,15.64-3.75c4.63-2.5,8.27-5.94,10.93-10.33,2.66-4.39,3.99-9.32,3.99-14.8s-1.33-10.41-3.99-14.8c-2.66-4.39-6.3-7.83-10.93-10.33ZM355.37,50.38c-1.52,2.71-3.6,4.83-6.26,6.34-2.66,1.52-5.64,2.27-8.93,2.27s-6.28-.76-8.94-2.27c-2.66-1.52-4.75-3.63-6.26-6.34-1.52-2.71-2.27-5.8-2.27-9.25s.76-6.54,2.27-9.25c1.52-2.71,3.6-4.83,6.26-6.34,2.66-1.52,5.64-2.27,8.94-2.27s6.28.76,8.93,2.27c2.66,1.52,4.75,3.63,6.26,6.34,1.52,2.71,2.27,5.8,2.27,9.25s-.76,6.54-2.27,9.25ZM393.22,69.04h-12.76V13.2h10.69l27.76,33.9V13.2h12.76v55.84h-10.61l-27.84-33.9v33.9ZM484.81,67.45c-3.94,1.7-8.32,2.55-13.16,2.55-5.69,0-10.84-1.24-15.44-3.71-4.6-2.47-8.22-5.9-10.85-10.29-2.63-4.39-3.95-9.35-3.95-14.88s1.32-10.49,3.95-14.88c2.63-4.39,6.25-7.82,10.85-10.29,4.6-2.47,9.77-3.71,15.52-3.71,4.84,0,9.21.85,13.12,2.55,3.91,1.7,7.19,4.15,9.85,7.34l-8.3,7.66c-3.78-4.36-8.46-6.54-14.04-6.54-3.46,0-6.54.76-9.25,2.27-2.71,1.52-4.83,3.63-6.34,6.34-1.52,2.71-2.27,5.8-2.27,9.25s.76,6.54,2.27,9.25c1.52,2.71,3.63,4.83,6.34,6.34,2.71,1.52,5.8,2.27,9.25,2.27,5.58,0,10.26-2.21,14.04-6.62l8.3,7.66c-2.66,3.24-5.96,5.72-9.89,7.42ZM516.32,69.04h-12.92V13.2h12.92v55.84ZM572.8,69.04h-43.24V13.2h42.2v10.37h-29.36v12.13h25.93v10.05h-25.93v12.92h30.4v10.37ZM596.01,53.49h11.89l10.77,15.56h13.88l-12.52-17.95c3.67-1.6,6.5-3.9,8.5-6.9,1.99-3,2.99-6.58,2.99-10.73s-.98-7.74-2.95-10.77c-1.97-3.03-4.77-5.37-8.42-7.02-3.64-1.65-7.94-2.47-12.88-2.47h-24.17v55.84h12.92v-15.56ZM596.01,23.73h10.53c3.88,0,6.83.84,8.86,2.51,2.02,1.68,3.03,4.08,3.03,7.22s-1.01,5.48-3.03,7.18c-2.02,1.7-4.97,2.55-8.86,2.55h-10.53v-19.46ZM692.3,21.9l-8.3,7.66c-3.99-4.2-8.8-6.3-14.44-6.3-3.56,0-6.73.75-9.49,2.23-2.77,1.49-4.92,3.59-6.46,6.3-1.54,2.71-2.31,5.82-2.31,9.33s.77,6.54,2.31,9.25c1.54,2.71,3.68,4.83,6.42,6.34,2.74,1.52,5.86,2.27,9.37,2.27,3.72,0,7.07-.8,10.05-2.39v-16.35h11.81v22.66c-3.03,2.29-6.54,4.04-10.53,5.27-3.99,1.22-8.01,1.83-12.05,1.83-5.8,0-11.01-1.24-15.64-3.71-4.63-2.47-8.26-5.9-10.89-10.29-2.63-4.39-3.95-9.35-3.95-14.88s1.32-10.49,3.95-14.88c2.63-4.39,6.29-7.82,10.97-10.29,4.68-2.47,9.94-3.71,15.8-3.71,4.89,0,9.33.83,13.32,2.47,3.99,1.65,7.34,4.04,10.05,7.18ZM746.47,58.67v10.37h-43.24V13.2h42.2v10.37h-29.36v12.13h25.93v10.05h-25.93v12.92h30.4ZM263.61,93.88l-11.46,25.46h4.88l2.51-5.89h12.73l2.55,5.89h4.95l-11.49-25.46h-4.66ZM261.14,109.74l4.76-11.13,4.8,11.13h-9.57ZM302.92,107.89c.93-1.38,1.4-3.03,1.4-4.95s-.44-3.48-1.31-4.84c-.87-1.36-2.13-2.4-3.77-3.13-1.64-.73-3.56-1.09-5.77-1.09h-10.48v25.46h4.73v-7.42h5.75c.44,0,.76-.01.98-.04l5.2,7.46h5.09l-5.86-8.37c1.75-.68,3.09-1.71,4.02-3.09ZM293.26,108.03h-5.53v-10.15h5.53c2.06,0,3.63.44,4.69,1.31,1.07.87,1.6,2.12,1.6,3.75s-.53,2.88-1.6,3.76c-1.07.89-2.63,1.33-4.69,1.33ZM305.96,93.88h21.61v4h-8.44v21.46h-4.73v-21.46h-8.44v-4ZM331.13,93.88h4.73v25.46h-4.73v-25.46ZM342.73,93.88h18.59v3.96h-13.86v7.75h12.3v4h-12.3v9.75h-4.73v-25.46ZM365.9,93.88h4.73v25.46h-4.73v-25.46ZM381.62,101.99c-.78,1.36-1.16,2.9-1.16,4.62s.39,3.26,1.16,4.62c.78,1.36,1.86,2.42,3.24,3.18,1.38.76,2.95,1.15,4.69,1.15,2.69,0,4.96-1.01,6.8-3.02l3.06,2.91c-1.19,1.38-2.65,2.44-4.38,3.17-1.73.73-3.64,1.09-5.73,1.09-2.57,0-4.89-.56-6.97-1.69-2.07-1.13-3.7-2.69-4.87-4.67-1.18-1.99-1.76-4.23-1.76-6.73s.59-4.74,1.78-6.73c1.19-1.99,2.82-3.55,4.89-4.67,2.07-1.13,4.39-1.69,6.97-1.69,2.09,0,3.99.36,5.71,1.09,1.72.73,3.18,1.78,4.36,3.16l-3.06,2.87c-1.84-1.99-4.11-2.98-6.8-2.98-1.75,0-3.31.38-4.69,1.15-1.38.76-2.46,1.83-3.24,3.18ZM403.95,93.88h4.73v25.46h-4.73v-25.46ZM423.41,93.88l-11.46,25.46h4.88l2.51-5.89h12.73l2.55,5.89h4.95l-11.49-25.46h-4.66ZM420.94,109.74l4.76-11.13,4.8,11.13h-9.57ZM447.53,115.34h13.31v4h-18.04v-25.46h4.73v21.46ZM474.63,93.88h4.73v25.46h-4.73v-25.46ZM504.17,93.88h4.69v25.46h-3.89l-14.04-17.24v17.24h-4.69v-25.46h3.89l14.04,17.24v-17.24ZM512.43,93.88h21.61v4h-8.44v21.46h-4.73v-21.46h-8.44v-4ZM542.33,115.38h14.37v3.97h-19.1v-25.46h18.59v3.96h-13.86v6.62h12.3v3.89h-12.3v7.02ZM566.7,115.34h13.31v4h-18.04v-25.46h4.73v21.46ZM588.49,115.34h13.31v4h-18.04v-25.46h4.73v21.46ZM605.55,93.88h4.73v25.46h-4.73v-25.46ZM621.28,101.96c-.79,1.36-1.18,2.91-1.18,4.66s.39,3.23,1.18,4.58c.79,1.36,1.88,2.42,3.27,3.2s2.98,1.16,4.75,1.16c1.99,0,3.73-.44,5.24-1.31v-7.93h4.47v10.15c-1.31,1.04-2.84,1.84-4.58,2.4-1.75.56-3.54.84-5.38.84-2.6,0-4.94-.56-7.02-1.69-2.09-1.13-3.72-2.69-4.91-4.67-1.19-1.99-1.78-4.23-1.78-6.73s.59-4.74,1.78-6.73c1.19-1.99,2.83-3.55,4.93-4.67,2.1-1.13,4.46-1.69,7.08-1.69,2.13,0,4.07.35,5.82,1.05,1.75.7,3.21,1.73,4.4,3.09l-2.98,2.91c-1.94-1.94-4.28-2.91-7.02-2.91-1.79,0-3.39.38-4.78,1.13s-2.49,1.81-3.27,3.16ZM649.96,115.38h14.37v3.97h-19.1v-25.46h18.59v3.96h-13.86v6.62h12.3v3.89h-12.3v7.02ZM687.54,93.88h4.69v25.46h-3.89l-14.04-17.24v17.24h-4.69v-25.46h3.89l14.04,17.24v-17.24ZM703.18,101.99c-.78,1.36-1.16,2.9-1.16,4.62s.39,3.26,1.16,4.62c.78,1.36,1.86,2.42,3.24,3.18,1.38.76,2.95,1.15,4.69,1.15,2.69,0,4.96-1.01,6.8-3.02l3.06,2.91c-1.19,1.38-2.65,2.44-4.38,3.17-1.73.73-3.64,1.09-5.73,1.09-2.57,0-4.89-.56-6.97-1.69-2.07-1.13-3.7-2.69-4.87-4.67-1.18-1.99-1.76-4.23-1.76-6.73s.59-4.74,1.78-6.73,2.82-3.55,4.89-4.67c2.07-1.13,4.39-1.69,6.97-1.69,2.09,0,3.99.36,5.71,1.09,1.72.73,3.18,1.78,4.36,3.16l-3.06,2.87c-1.84-1.99-4.11-2.98-6.8-2.98-1.75,0-3.31.38-4.69,1.15-1.38.76-2.46,1.83-3.24,3.18ZM730.25,115.38h14.37v3.97h-19.1v-25.46h18.59v3.96h-13.86v6.62h12.3v3.89h-12.3v7.02Z"/>
  </g>
</svg>